HIERARCHY
ROOT pelvis
{
  OFFSET 0 100 0
  CHANNELS 6 Xposition Yposition Zposition Zrotation Xrotation Yrotation
  JOINT pelvis_right_femur
  {
    OFFSET -10.78128 -3.44521 -0.5502486
    CHANNELS 3 Zrotation Xrotation Yrotation
    JOINT right_femur_tibia
    {
      OFFSET -0.8047443 -44.0398 -0.1307829
      CHANNELS 3 Zrotation Xrotation Yrotation
      JOINT right_tibia_foot
      {
        OFFSET 3.006224 -47.83518 -5
        CHANNELS 3 Zrotation Xrotation Yrotation
        End Site
        {
          OFFSET 0 -5 15
        }
      }
    }
  }
  JOINT pelvis_left_femur
  {
    OFFSET 10.78128 -3.44521 -0.5502486
    CHANNELS 3 Zrotation Xrotation Yrotation
    JOINT left_femur_tibia
    {
      OFFSET 0.8047443 -44.0398 -0.1307829
      CHANNELS 3 Zrotation Xrotation Yrotation
      JOINT left_tibia_foot
      {
        OFFSET -4.370144 -48.10324 -4.275266
        CHANNELS 3 Zrotation Xrotation Yrotation
        End Site
        {
          OFFSET 0 -5 15
        }
      }
    }
  }
  JOINT pelvis_spine1
  {
    OFFSET 0 6.468898 -3.129235
    CHANNELS 3 Zrotation Xrotation Yrotation
    JOINT spine1
    {
      OFFSET 0 23.15396 4.99043
      CHANNELS 3 Zrotation Xrotation Yrotation
      JOINT spine2
      {
        OFFSET 0 20.79997 -5.064912
        CHANNELS 3 Zrotation Xrotation Yrotation
        JOINT neck
        {
          OFFSET 0 14.38658 9.616178
          CHANNELS 3 Zrotation Xrotation Yrotation
          End Site
          {
            OFFSET 0 20 0
          }
        }
      }
      JOINT right_manubrium
      {
        OFFSET -5.722621 16.35077 3.967754
        CHANNELS 3 Zrotation Xrotation Yrotation
        JOINT right_clavicle
        {
          OFFSET -13.16364 1.694482 -4.693211
          CHANNELS 3 Zrotation Xrotation Yrotation
          JOINT right_humerus
          {
            OFFSET -28.5034 -0.3100689 -2.792744
            CHANNELS 3 Zrotation Xrotation Yrotation
            JOINT right_radius
            {
              OFFSET -25.15693 0.02248979 -1.271978
              CHANNELS 3 Zrotation Xrotation Yrotation
              End Site
              {
                OFFSET -15 0 0
              }
            }
          }
        }
      }
      JOINT left_manubrium
      {
        OFFSET 5.722621 16.35077 3.967754
        CHANNELS 3 Zrotation Xrotation Yrotation
        JOINT left_clavicle
        {
          OFFSET 13.16364 1.694482 -4.693211
          CHANNELS 3 Zrotation Xrotation Yrotation
          JOINT left_humerus
          {
            OFFSET 29.39168 -1.063119 -2.237045
            CHANNELS 3 Zrotation Xrotation Yrotation
            JOINT left_radius
            {
              OFFSET 24.59957 -0.9528479 0.9047498
              CHANNELS 3 Zrotation Xrotation Yrotation
              End Site
              {
                OFFSET 15 -0 -0
              }
            }
          }
        }
      }
    }
  }
}
MOTION
Frames: 17
Frame Time: 0.0416666666667
0 103.5113 0 0.7488231 -0.9989627 0.06920274 3.272705 -15.82507 8.589149 -0 39.25255 -0 -6.765292 -15.60316 -2.80053 -7.249683 6.123093 -23.33559 -0 4.828749 -0 6.961128 -18.19392 26.28134 -1.240473 -1.874095 3.976465 2.414929 9.865045 -7.580543 0.9693621 21.77569 6.542966 3.921078 -24.77477 7.433401 3.751869 -19.61667 11.55187 87.83549 31.28991 -19.76458 -0 0 13.28701 -11.33 8.711459 6.604779 5.664153 -21.90186 -3.252766 -93.53941 25.84717 22.53137 0 0 -17.32645 6.081196 16.97495 6.807117
0.3667354 103.6707 0.8176393 0.6984711 -0.8460166 0.1340685 3.527968 -17.79184 8.652452 -0 39.0356 -0 -6.880896 -15.24784 -3.027425 -7.218473 7.936492 -23.54929 -0 5.62771 -0 6.979622 -18.64714 26.0704 -1.114074 -2.139992 3.906979 2.568632 10.23903 -7.985764 0.8273915 21.54819 6.643464 4.007305 -25.11496 7.379881 3.712332 -19.79809 11.71859 88.64977 31.18211 -21.03041 -0 0 12.8373 -11.35029 9.018544 6.30767 5.803868 -22.71529 -3.563541 -93.17107 25.2521 22.29259 0 0 -18.50593 6.922423 17.23765 5.821401
0.6898603 103.8189 2.0617 0.6926678 -1.09205 0.3079512 3.396976 -19.6582 7.93799 -0 38.87689 -0 -6.492802 -13.22764 -3.364622 -7.05788 9.995107 -22.67703 -0 6.288685 -0 6.164924 -19.2121 24.91126 -1.18281 -2.0376 3.836283 2.580409 10.02608 -7.935527 0.8689454 21.62356 6.653665 3.999751 -25.08827 7.443624 3.805873 -19.55133 11.63528 88.52134 31.42029 -20.9405 -0 0 12.70052 -11.08458 8.852389 6.257377 5.801808 -22.48768 -3.411791 -93.15672 25.6895 22.05709 0 0 -18.45402 6.603794 17.17471 6.228558
0.955115 103.8551 3.551699 0.5853756 -0.9759342 0.5022079 3.545543 -21.6299 7.298558 -0 36.51568 -0 -6.619722 -12.32529 -3.467784 -6.785604 11.56991 -22.07016 -0 6.146479 -0 5.775385 -19.75966 24.05428 -1.196028 -2.054752 3.75248 2.658447 9.976214 -8.056681 0.8456448 21.59091 6.709951 4.032616 -25.22451 7.483606 3.895873 -19.41123 11.62971 88.71391 31.63949 -21.36744 -0 0 12.42166 -10.82349 8.824997 6.086894 5.851712 -22.59976 -3.385263 -93.03072 25.88057 21.80099 0 0 -18.8791 6.619271 17.22156 6.252885
1.156507 103.6823 5.398655 0.430624 -0.8273277 0.7186804 3.685029 -23.77481 6.337519 -0 32.8141 -0 -6.829619 -11.27196 -3.503923 -6.394156 13.12228 -21.11446 -0 5.630743 -0 5.221644 -20.36387 22.89197 -1.233201 -2.01642 3.647606 2.710927 9.859744 -8.118628 0.8531983 21.61376 6.745468 4.044344 -25.26767 7.534991 3.968497 -19.18004 11.58406 88.83805 31.82098 -21.64943 -0 0 12.11262 -10.57506 8.741759 5.952496 5.894068 -22.59841 -3.324041 -92.86169 26.15012 21.4085 0 0 -19.18435 6.543245 17.21991 6.36917
1.289133 103.2844 7.646288 0.2612171 -0.6896352 0.9585176 3.79859 -26.04983 5.278829 -0 28.77167 -0 -7.045279 -10.10242 -3.546215 -5.992694 14.77659 -20.04226 -0 5.234145 -0 4.560743 -20.97101 21.58568 -1.268927 -1.98704 3.53163 2.777063 9.746058 -8.205971 0.8539225 21.62577 6.791131 4.06274 -25.33771 7.59032 4.053254 -18.93709 11.54199 89.00751 32.02987 -22.01773 -0 0 11.76041 -10.29404 8.663275 5.789897 5.945723 -22.63063 -3.266259 -92.66857 26.42973 20.98073 0 0 -19.57248 6.486585 17.22964 6.469091
1.354186 102.65 10.40336 0.09028713 -0.64668 1.231965 3.812755 -28.30533 4.029577 -0 24.51886 -0 -7.176368 -8.597631 -3.619246 -5.590517 16.47786 -18.69381 -0 5.124834 -0 3.64895 -21.52371 20.00871 -1.311989 -1.938853 3.395453 2.837423 9.613725 -8.283706 0.8652101 21.65861 6.830619 4.073017 -25.36878 7.649982 4.124413 -18.6427 11.48449 89.19284 32.20586 -22.38478 -0 0 11.35128 -10.02317 8.5705 5.629411 6.002897 -22.64581 -3.207418 -92.41389 26.71917 20.43466 0 0 -19.97153 6.427713 17.22381 6.561674
1.359464 101.7975 13.78661 -0.0645991 -0.7584281 1.548145 3.702862 -30.31813 2.625789 -0 20.37781 -0 -7.164298 -6.728344 -3.749123 -5.224058 18.10204 -17.04964 -0 5.611282 -0 2.439504 -21.91467 18.17137 -1.36338 -1.873978 3.239023 2.897345 9.458356 -8.358478 0.8843788 21.7069 6.868977 4.078525 -25.37613 7.716931 4.194187 -18.29579 11.41273 89.3943 32.37733 -22.76829 -0 0 10.88422 -9.740928 8.462751 5.46194 6.066043 -22.64567 -3.141278 -92.10541 27.0383 19.7802 0 0 -20.39874 6.354094 17.20429 6.667984
1.320339 100.7826 17.90428 -0.185723 -1.080676 1.90815 3.491451 -31.7688 1.157312 -0 16.65249 -0 -6.969023 -4.560047 -3.957799 -4.918362 19.42086 -15.11443 -0 7.104004 -0 0.9212018 -21.98632 16.1371 -1.428055 -1.779348 3.049389 2.952677 9.267628 -8.42374 0.9185766 21.78431 6.902165 4.073403 -25.33216 7.794032 4.254058 -17.86141 11.31664 89.61957 32.52299 -23.16524 -0 0 10.3219 -9.456776 8.333224 5.289846 6.13852 -22.61819 -3.067237 -91.70024 27.39199 18.93613 0 0 -20.86263 6.261914 17.15843 6.786057
1.258353 99.71709 22.8127 -0.2533764 -1.65024 2.296954 3.279291 -32.27654 -0.1632778 -0 13.75043 -0 -6.578325 -2.30994 -4.265493 -4.684709 20.1324 -12.99637 -0 10.13332 -0 -0.8276268 -21.54926 14.08769 -1.510182 -1.647019 2.818582 3.003926 9.030261 -8.479659 0.9708003 21.89567 6.931257 4.055658 -25.22703 7.885409 4.307747 -17.31453 11.19033 89.87297 32.64927 -23.58536 -0 0 9.639425 -9.165689 8.180283 5.109704 6.222544 -22.55572 -2.980536 -91.17202 27.79576 17.85152 0 0 -21.38337 6.13625 17.07567 6.933922
1.195217 98.7734 28.47821 -0.2540038 -2.469615 2.676965 3.230395 -31.49528 -1.044615 -0 12.04278 -0 -6.023603 -0.3221665 -4.677433 -4.500371 19.9229 -10.8946 -0 15.24278 -0 -2.647295 -20.43342 12.29314 -1.610585 -1.472112 2.554202 3.04483 8.746109 -8.517106 1.043337 22.04208 6.953819 4.02174 -25.04553 7.989927 4.354743 -16.65842 11.03329 90.13267 32.75131 -23.99458 -0 0 8.858045 -8.892076 8.015194 4.936532 6.313163 -22.44378 -2.879865 -90.52132 28.24085 16.53239 0 0 -21.9391 5.95686 16.94025 7.134983
1.142003 98.16594 34.75148 -0.1909793 -3.490544 2.984855 3.499977 -29.22732 -1.220072 -0 11.69818 -0 -5.396084 0.9850454 -5.164942 -4.311117 18.55139 -9.064141 -0 22.80026 -0 -4.332084 -18.55201 11.04738 -1.722242 -1.263038 2.306286 3.058574 8.438493 -8.508367 1.132879 22.20883 6.963386 3.969839 -24.78548 8.095575 4.396921 -15.97898 10.86092 90.30225 32.83286 -24.25537 -0 0 8.129962 -8.699115 7.871204 4.821329 6.385932 -22.24949 -2.762933 -89.8525 28.69213 15.18101 0 0 -22.39723 5.67872 16.73494 7.447353
1.089029 98.10119 41.36472 -0.09311601 -4.605914 3.132747 4.144006 -25.46176 -0.5703972 -0 12.53014 -0 -4.853008 1.185589 -5.643712 -4.053972 15.8763 -7.747747 -0 32.7207 -0 -5.680384 -15.94541 10.59035 -1.829201 -1.042665 2.17595 3.012801 8.158078 -8.396752 1.231621 22.3674 6.944877 3.898899 -24.45453 8.175944 4.431442 -15.46379 10.7059 90.18807 32.89476 -24.08506 -0 0 7.770402 -8.699961 7.799564 4.863281 6.391609 -21.91124 -2.62633 -89.40381 29.08776 14.24764 0 0 -22.46672 5.232818 16.44289 7.96082
1.007179 98.69685 47.96773 -0.01368054 -5.650744 3.019566 5.067946 -20.36259 0.7871135 -0 13.91249 -0 -4.59364 -0.05323208 -5.965104 -3.680718 11.84485 -7.088598 -0 44.0507 -0 -6.531813 -12.81859 11.03511 -1.915041 -0.8359694 2.271654 2.872227 7.957365 -8.117564 1.332126 22.49019 6.880027 3.808309 -24.06264 8.202237 4.451064 -15.31834 10.60243 89.57801 32.92777 -23.1668 -0 0 8.123453 -9.010278 7.843328 5.170188 6.276266 -21.35862 -2.464114 -89.44815 29.37133 14.23719 0 0 -21.81449 4.551801 16.04939 8.763231
0.8693414 99.89085 54.23554 -0.01083399 -6.434309 2.56462 6.035631 -14.32239 2.446259 -0 14.83799 -0 -4.76397 -2.732042 -5.959594 -3.166112 6.579499 -7.007886 -0 54.62184 -0 -6.816498 -9.579717 12.26116 -1.976559 -0.6476614 2.616052 2.626722 7.851053 -7.656411 1.433762 22.57217 6.763377 3.696407 -23.60057 8.167286 4.446859 -15.58409 10.5579 88.43866 32.8933 -21.43296 -0 0 9.257697 -9.67574 8.015946 5.771496 6.028837 -20.58097 -2.278778 -90.03715 29.50961 15.24479 0 0 -20.37575 3.634239 15.53759 9.857076
0.6837104 101.4145 60.03012 -0.1028134 -6.838833 1.76192 6.755984 -7.980978 3.80136 -0 14.43652 -0 -5.298788 -6.245024 -5.539589 -2.501012 0.5305954 -7.142907 -0 61.51257 -0 -6.610955 -6.779344 13.86104 -2.024183 -0.4634041 3.110993 2.307907 7.816443 -7.089055 1.538566 22.62626 6.614789 3.56305 -23.04431 8.093442 4.41362 -16.0757 10.54942 87.01838 32.74045 -19.22994 -0 0 10.83771 -10.65042 8.318915 6.574775 5.704421 -19.68362 -2.097617 -90.87729 29.48764 16.76517 0 0 -18.53007 2.584547 14.89475 11.11163
0.5041112 102.8908 65.47278 -0.2429552 -6.903897 0.7065518 7.032348 -1.990556 4.366157 -0 12.66912 -0 -5.909862 -9.570096 -4.74813 -1.6795 -5.609634 -7.036793 -0 62.60536 -0 -6.104546 -4.870288 15.33562 -2.064214 -0.2796097 3.638054 1.962108 7.841652 -6.524151 1.641213 22.65593 6.464091 3.413927 -22.39208 8.005766 4.349389 -16.58585 10.5576 85.63942 32.44876 -17.03023 -0 0 12.45215 -11.86379 8.763578 7.453968 5.375296 -18.82456 -1.964552 -91.60704 29.29345 18.20525 0 0 -16.77456 1.552439 14.13503 12.34241
